<svg xmlns="http://www.w3.org/2000/svg" viewBox="0 0 3500 2584" width="3500" height="2584"><defs><style type="text/css">@import url('https://fonts.googleapis.com/css?family=Roboto+Mono:400|Roboto:400,&amp;subset=cyrillic,cyrillic-ext,greek,greek-ext,latin-ext')</style></defs><rect x="0" y="0" width="3500" height="2584" fill="#ffffff"/><text x="1750" y="109" text-anchor="middle" font-size="64px" font-family="Roboto,sans-serif" fill="#52565f">Web Store</text><text x="3455" y="2525" text-anchor="end" font-size="14px" font-family="Roboto,sans-serif" color="#52565f">10 December 2019</text><g transform="translate(45,213)"><g><g><g transform="translate(1320, 0)"><path d="M55 34 L110 34 L165 34 C184 34 199 49 199 68 L199 68 L199 68 C199 87 184 102 165 102 L110 102 L55 102 C36 102 21 87 21 68 L21 68 L21 68 C21 49 36 34 55 34 Z" fill="#ffffff" stroke="#4d9ef6" stroke-width="2"/><g transform="translate(40, 49)"><text font-size="14" font-family="Roboto,sans-serif" x="70" y="24" text-anchor="middle" fill="#52565f">Check out</text></g></g><g transform="translate(2860, 1020)"><path d="M24.5 34 L110 34 L195.5 34 C197.5 34 199 35.5 199 37.5 L199 68 L199 98.5 C199 100.5 197.5 102 195.5 102 L110 102 L24.5 102 C22.5 102 21 100.5 21 98.5 L21 68 L21 37.5 C21 35.5 22.5 34 24.5 34 Z" fill="#ffffff" stroke="#4d9ef6" stroke-width="2"/><g transform="translate(36, 49)"><text font-size="14" font-family="Roboto,sans-serif" x="74" y="14" text-anchor="middle" fill="#52565f">Seller generates RMA &amp;</text><text font-size="14" font-family="Roboto,sans-serif" x="74" y="34" text-anchor="middle" fill="#52565f">return label</text></g></g><g transform="translate(2860, 1156)"><path d="M24.5 34 L110 34 L195.5 34 C197.5 34 199 35.5 199 37.5 L199 68 L199 98.5 C199 100.5 197.5 102 195.5 102 L110 102 L24.5 102 C22.5 102 21 100.5 21 98.5 L21 68 L21 37.5 C21 35.5 22.5 34 24.5 34 Z" fill="#ffffff" stroke="#4d9ef6" stroke-width="2"/><g transform="translate(36, 49)"><text font-size="14" font-family="Roboto,sans-serif" x="74" y="14" text-anchor="middle" fill="#52565f">Seller sends RMA &amp; return</text><text font-size="14" font-family="Roboto,sans-serif" x="74" y="34" text-anchor="middle" fill="#52565f">label to buyer</text></g></g><g transform="translate(2860, 1326)"><path d="M24.5 34 L110 34 L195.5 34 C197.5 34 199 35.5 199 37.5 L199 68 L199 98.5 C199 100.5 197.5 102 195.5 102 L110 102 L24.5 102 C22.5 102 21 100.5 21 98.5 L21 68 L21 37.5 C21 35.5 22.5 34 24.5 34 Z" fill="#ffffff" stroke="#4d9ef6" stroke-width="2"/><g transform="translate(36, 49)"><text font-size="14" font-family="Roboto,sans-serif" x="74" y="24" text-anchor="middle" fill="#52565f">Buyer returns product</text></g></g><g transform="translate(2860, 680)"><path d="M55 34 L110 34 L165 34 C184 34 199 49 199 68 L199 68 L199 68 C199 87 184 102 165 102 L110 102 L55 102 C36 102 21 87 21 68 L21 68 L21 68 C21 49 36 34 55 34 Z" fill="#ffffff" stroke="#4d9ef6" stroke-width="2"/><g transform="translate(40, 49)"><text font-size="14" font-family="Roboto,sans-serif" x="70" y="24" text-anchor="middle" fill="#52565f">Returns &amp; Exchanges</text></g></g><g transform="translate(2145, 680)"><path d="M55 34 L110 34 L165 34 C184 34 199 49 199 68 L199 68 L199 68 C199 87 184 102 165 102 L110 102 L55 102 C36 102 21 87 21 68 L21 68 L21 68 C21 49 36 34 55 34 Z" fill="#ffffff" stroke="#4d9ef6" stroke-width="2"/><g transform="translate(40, 49)"><text font-size="14" font-family="Roboto,sans-serif" x="70" y="24" text-anchor="middle" fill="#52565f">Reset Password</text></g></g><g transform="translate(275, 646)"><path d="M55 34 L110 34 L165 34 C184 34 199 49 199 68 L199 68 L199 68 C199 87 184 102 165 102 L110 102 L55 102 C36 102 21 87 21 68 L21 68 L21 68 C21 49 36 34 55 34 Z" fill="#ffffff" stroke="#4d9ef6" stroke-width="2"/><g transform="translate(40, 49)"><text font-size="14" font-family="Roboto,sans-serif" x="70" y="24" text-anchor="middle" fill="#52565f">Changes Address</text></g></g><g transform="translate(1925, 884)"><path d="M55 34 L110 34 L165 34 C184 34 199 49 199 68 L199 68 L199 68 C199 87 184 102 165 102 L110 102 L55 102 C36 102 21 87 21 68 L21 68 L21 68 C21 49 36 34 55 34 Z" fill="#ffffff" stroke="#4d9ef6" stroke-width="2"/><g transform="translate(40, 49)"><text font-size="14" font-family="Roboto,sans-serif" x="70" y="24" text-anchor="middle" fill="#52565f">Login</text></g></g><g transform="translate(2145, 884)"><path d="M65.5 44.5 L108 23 A4.340425531914893 4.340425531914893 0 0 1 112 23 L154.5 44.5 L197 66 A2.2921348314606744 2.2921348314606744 0 0 1 197 70 L154.5 91.5 L112 113 A4.340425531914893 4.340425531914893 0 0 1 108 113 L65.5 91.5 L23 70 A2.2921348314606744 2.2921348314606744 0 0 1 23 66 Z" fill="#ffffff" stroke="#4d9ef6" stroke-width="2"/><g transform="translate(65.5, 44.5)"><text font-size="14" font-family="Roboto,sans-serif" x="44.5" y="18.5" text-anchor="middle" fill="#52565f">Correct</text><text font-size="14" font-family="Roboto,sans-serif" x="44.5" y="38.5" text-anchor="middle" fill="#52565f">Password</text></g></g><g transform="translate(2420, 884)"><path d="M55 34 L110 34 L165 34 C184 34 199 49 199 68 L199 68 L199 68 C199 87 184 102 165 102 L110 102 L55 102 C36 102 21 87 21 68 L21 68 L21 68 C21 49 36 34 55 34 Z" fill="#ffffff" stroke="#4d9ef6" stroke-width="2"/><g transform="translate(40, 49)"><text font-size="14" font-family="Roboto,sans-serif" x="70" y="24" text-anchor="middle" fill="#52565f">Continue to the site</text></g></g><g transform="translate(2145, 1054)"><path d="M24.5 34 L110 34 L195.5 34 C197.5 34 199 35.5 199 37.5 L199 68 L199 98.5 C199 100.5 197.5 102 195.5 102 L110 102 L24.5 102 C22.5 102 21 100.5 21 98.5 L21 68 L21 37.5 C21 35.5 22.5 34 24.5 34 Z" fill="#ffffff" stroke="#4d9ef6" stroke-width="2"/><g transform="translate(36, 49)"><text font-size="14" font-family="Roboto,sans-serif" x="74" y="24" text-anchor="middle" fill="#52565f">Forgot password</text></g></g><g transform="translate(2145, 1224)"><path d="M24.5 34 L110 34 L195.5 34 C197.5 34 199 35.5 199 37.5 L199 68 L199 98.5 C199 100.5 197.5 102 195.5 102 L110 102 L24.5 102 C22.5 102 21 100.5 21 98.5 L21 68 L21 37.5 C21 35.5 22.5 34 24.5 34 Z" fill="#ffffff" stroke="#4d9ef6" stroke-width="2"/><g transform="translate(36, 49)"><text font-size="14" font-family="Roboto,sans-serif" x="74" y="24" text-anchor="middle" fill="#52565f">Enter your email address</text></g></g><g transform="translate(2090, 1360)"><path d="M24.5 34 L165 34 L305.5 34 C307.5 34 309 35.5 309 37.5 L309 68 L309 98.5 C309 100.5 307.5 102 305.5 102 L165 102 L24.5 102 C22.5 102 21 100.5 21 98.5 L21 68 L21 37.5 C21 35.5 22.5 34 24.5 34 Z" fill="#ffffff" stroke="#4d9ef6" stroke-width="2"/><g transform="translate(36, 49)"><text font-size="14" font-family="Roboto,sans-serif" x="129" y="14" text-anchor="middle" fill="#52565f">check to see if eemail address exist in the</text><text font-size="14" font-family="Roboto,sans-serif" x="129" y="34" text-anchor="middle" fill="#52565f">database</text></g></g><g transform="translate(2145, 1496)"><path d="M65.5 44.5 L108 23 A4.340425531914893 4.340425531914893 0 0 1 112 23 L154.5 44.5 L197 66 A2.2921348314606744 2.2921348314606744 0 0 1 197 70 L154.5 91.5 L112 113 A4.340425531914893 4.340425531914893 0 0 1 108 113 L65.5 91.5 L23 70 A2.2921348314606744 2.2921348314606744 0 0 1 23 66 Z" fill="#ffffff" stroke="#4d9ef6" stroke-width="2"/><g transform="translate(65.5, 44.5)"><text font-size="14" font-family="Roboto,sans-serif" x="44.5" y="28.5" text-anchor="middle" fill="#52565f">Exist</text></g></g><g transform="translate(2420, 1496)"><path d="M24.5 34 L110 34 L195.5 34 C197.5 34 199 35.5 199 37.5 L199 68 L199 98.5 C199 100.5 197.5 102 195.5 102 L110 102 L24.5 102 C22.5 102 21 100.5 21 98.5 L21 68 L21 37.5 C21 35.5 22.5 34 24.5 34 Z" fill="#ffffff" stroke="#4d9ef6" stroke-width="2"/><g transform="translate(36, 49)"><text font-size="14" font-family="Roboto,sans-serif" x="74" y="14" text-anchor="middle" fill="#52565f">Tell the user the email</text><text font-size="14" font-family="Roboto,sans-serif" x="74" y="34" text-anchor="middle" fill="#52565f">address does not exist,</text></g></g><g transform="translate(2035, 1632)"><path d="M24.5 34 L220 34 L415.5 34 C417.5 34 419 35.5 419 37.5 L419 85 L419 132.5 C419 134.5 417.5 136 415.5 136 L220 136 L24.5 136 C22.5 136 21 134.5 21 132.5 L21 85 L21 37.5 C21 35.5 22.5 34 24.5 34 Z" fill="#ffffff" stroke="#4d9ef6" stroke-width="2"/><g transform="translate(36, 49)"><text font-size="14" font-family="Roboto,sans-serif" x="184" y="31" text-anchor="middle" fill="#52565f">Send a link to the email and generate a token to reset password,</text><text font-size="14" font-family="Roboto,sans-serif" x="184" y="51" text-anchor="middle" fill="#52565f">the token is valid for certain minutes</text></g></g><g transform="translate(275, 884)"><path d="M24.5 34 L110 34 L195.5 34 C197.5 34 199 35.5 199 37.5 L199 68 L199 98.5 C199 100.5 197.5 102 195.5 102 L110 102 L24.5 102 C22.5 102 21 100.5 21 98.5 L21 68 L21 37.5 C21 35.5 22.5 34 24.5 34 Z" fill="#ffffff" stroke="#4d9ef6" stroke-width="2"/><g transform="translate(36, 49)"><text font-size="14" font-family="Roboto,sans-serif" x="74" y="14" text-anchor="middle" fill="#52565f">User enters login name</text><text font-size="14" font-family="Roboto,sans-serif" x="74" y="34" text-anchor="middle" fill="#52565f">and password</text></g></g><g transform="translate(1320, 884)"><path d="M24.5 34 L110 34 L195.5 34 C197.5 34 199 35.5 199 37.5 L199 68 L199 98.5 C199 100.5 197.5 102 195.5 102 L110 102 L24.5 102 C22.5 102 21 100.5 21 98.5 L21 68 L21 37.5 C21 35.5 22.5 34 24.5 34 Z" fill="#ffffff" stroke="#4d9ef6" stroke-width="2"/><g transform="translate(36, 49)"><text font-size="14" font-family="Roboto,sans-serif" x="74" y="14" text-anchor="middle" fill="#52565f">User enters login name</text><text font-size="14" font-family="Roboto,sans-serif" x="74" y="34" text-anchor="middle" fill="#52565f">and password</text></g></g><g transform="translate(1265, 1020)"><path d="M93 61.5 L163 23 A4.166666666666666 4.166666666666666 0 0 1 167 23 L237 61.5 L307 100 A2.3437499999999996 2.3437499999999996 0 0 1 307 104 L237 142.5 L167 181 A4.166666666666666 4.166666666666666 0 0 1 163 181 L93 142.5 L23 104 A2.3437499999999996 2.3437499999999996 0 0 1 23 100 Z" fill="#ffffff" stroke="#4d9ef6" stroke-width="2"/><g transform="translate(93, 61.5)"><text font-size="14" font-family="Roboto,sans-serif" x="72" y="35.5" text-anchor="middle" fill="#52565f">Correct login and</text><text font-size="14" font-family="Roboto,sans-serif" x="72" y="55.5" text-anchor="middle" fill="#52565f">password</text></g></g><g transform="translate(990, 1054)"><path d="M24.5 34 L110 34 L195.5 34 C197.5 34 199 35.5 199 37.5 L199 68 L199 98.5 C199 100.5 197.5 102 195.5 102 L110 102 L24.5 102 C22.5 102 21 100.5 21 98.5 L21 68 L21 37.5 C21 35.5 22.5 34 24.5 34 Z" fill="#ffffff" stroke="#4d9ef6" stroke-width="2"/><g transform="translate(36, 49)"><text font-size="14" font-family="Roboto,sans-serif" x="74" y="24" text-anchor="middle" fill="#52565f">Invalid login / pasword</text></g></g><g transform="translate(1320, 1258)"><path d="M24.5 34 L110 34 L195.5 34 C197.5 34 199 35.5 199 37.5 L199 68 L199 98.5 C199 100.5 197.5 102 195.5 102 L110 102 L24.5 102 C22.5 102 21 100.5 21 98.5 L21 68 L21 37.5 C21 35.5 22.5 34 24.5 34 Z" fill="#ffffff" stroke="#4d9ef6" stroke-width="2"/><g transform="translate(36, 49)"><text font-size="14" font-family="Roboto,sans-serif" x="74" y="24" text-anchor="middle" fill="#52565f">User succesfully logs in</text></g></g><g transform="translate(275, 1360)"><path d="M24.5 34 L110 34 L195.5 34 C197.5 34 199 35.5 199 37.5 L199 68 L199 98.5 C199 100.5 197.5 102 195.5 102 L110 102 L24.5 102 C22.5 102 21 100.5 21 98.5 L21 68 L21 37.5 C21 35.5 22.5 34 24.5 34 Z" fill="#ffffff" stroke="#4d9ef6" stroke-width="2"/><g transform="translate(36, 49)"><text font-size="14" font-family="Roboto,sans-serif" x="74" y="14" text-anchor="middle" fill="#52565f">User's setting are</text><text font-size="14" font-family="Roboto,sans-serif" x="74" y="34" text-anchor="middle" fill="#52565f">displayed</text></g></g><g transform="translate(1320, 170)"><path d="M24.5 34 L110 34 L195.5 34 C197.5 34 199 35.5 199 37.5 L199 68 L199 98.5 C199 100.5 197.5 102 195.5 102 L110 102 L24.5 102 C22.5 102 21 100.5 21 98.5 L21 68 L21 37.5 C21 35.5 22.5 34 24.5 34 Z" fill="#ffffff" stroke="#4d9ef6" stroke-width="2"/><g transform="translate(36, 49)"><text font-size="14" font-family="Roboto,sans-serif" x="74" y="14" text-anchor="middle" fill="#52565f">Browse &amp; choose</text><text font-size="14" font-family="Roboto,sans-serif" x="74" y="34" text-anchor="middle" fill="#52565f">products to purchase</text></g></g><g transform="translate(1320, 374)"><path d="M24.5 34 L110 34 L195.5 34 C197.5 34 199 35.5 199 37.5 L199 68 L199 98.5 C199 100.5 197.5 102 195.5 102 L110 102 L24.5 102 C22.5 102 21 100.5 21 98.5 L21 68 L21 37.5 C21 35.5 22.5 34 24.5 34 Z" fill="#ffffff" stroke="#4d9ef6" stroke-width="2"/><g transform="translate(36, 49)"><text font-size="14" font-family="Roboto,sans-serif" x="74" y="24" text-anchor="middle" fill="#52565f">Click 'Add to Cart' button</text></g></g><g transform="translate(1265, 544)"><path d="M93 61.5 L163 23 A4.166666666666666 4.166666666666666 0 0 1 167 23 L237 61.5 L307 100 A2.3437499999999996 2.3437499999999996 0 0 1 307 104 L237 142.5 L167 181 A4.166666666666666 4.166666666666666 0 0 1 163 181 L93 142.5 L23 104 A2.3437499999999996 2.3437499999999996 0 0 1 23 100 Z" fill="#ffffff" stroke="#4d9ef6" stroke-width="2"/><g transform="translate(93, 61.5)"><text font-size="14" font-family="Roboto,sans-serif" x="72" y="35.5" text-anchor="middle" fill="#52565f">Want to purchase more</text><text font-size="14" font-family="Roboto,sans-serif" x="72" y="55.5" text-anchor="middle" fill="#52565f">products</text></g></g><g transform="translate(1320, 1394)"><path d="M24.5 34 L110 34 L195.5 34 C197.5 34 199 35.5 199 37.5 L199 68 L199 98.5 C199 100.5 197.5 102 195.5 102 L110 102 L24.5 102 C22.5 102 21 100.5 21 98.5 L21 68 L21 37.5 C21 35.5 22.5 34 24.5 34 Z" fill="#ffffff" stroke="#4d9ef6" stroke-width="2"/><g transform="translate(36, 49)"><text font-size="14" font-family="Roboto,sans-serif" x="74" y="24" text-anchor="middle" fill="#52565f">Checkout</text></g></g><g transform="translate(1320, 1530)"><path d="M24.5 34 L110 34 L195.5 34 C197.5 34 199 35.5 199 37.5 L199 68 L199 98.5 C199 100.5 197.5 102 195.5 102 L110 102 L24.5 102 C22.5 102 21 100.5 21 98.5 L21 68 L21 37.5 C21 35.5 22.5 34 24.5 34 Z" fill="#ffffff" stroke="#4d9ef6" stroke-width="2"/><g transform="translate(36, 49)"><text font-size="14" font-family="Roboto,sans-serif" x="74" y="24" text-anchor="middle" fill="#52565f">Submit Orders</text></g></g><g transform="translate(1320, 1836)"><path d="M24.5 34 L110 34 L195.5 34 C197.5 34 199 35.5 199 37.5 L199 68 L199 98.5 C199 100.5 197.5 102 195.5 102 L110 102 L24.5 102 C22.5 102 21 100.5 21 98.5 L21 68 L21 37.5 C21 35.5 22.5 34 24.5 34 Z" fill="#ffffff" stroke="#4d9ef6" stroke-width="2"/><g transform="translate(36, 49)"><text font-size="14" font-family="Roboto,sans-serif" x="74" y="14" text-anchor="middle" fill="#52565f">Choose payment</text><text font-size="14" font-family="Roboto,sans-serif" x="74" y="34" text-anchor="middle" fill="#52565f">options</text></g></g><g transform="translate(1320, 1972)"><path d="M24.5 34 L110 34 L195.5 34 C197.5 34 199 35.5 199 37.5 L199 68 L199 98.5 C199 100.5 197.5 102 195.5 102 L110 102 L24.5 102 C22.5 102 21 100.5 21 98.5 L21 68 L21 37.5 C21 35.5 22.5 34 24.5 34 Z" fill="#ffffff" stroke="#4d9ef6" stroke-width="2"/><g transform="translate(36, 49)"><text font-size="14" font-family="Roboto,sans-serif" x="74" y="24" text-anchor="middle" fill="#52565f">Complete purchase</text></g></g><g transform="translate(1320, 2108)"><path d="M55 34 L110 34 L165 34 C184 34 199 49 199 68 L199 68 L199 68 C199 87 184 102 165 102 L110 102 L55 102 C36 102 21 87 21 68 L21 68 L21 68 C21 49 36 34 55 34 Z" fill="#ffffff" stroke="#4d9ef6" stroke-width="2"/><g transform="translate(40, 49)"><text font-size="14" font-family="Roboto,sans-serif" x="70" y="24" text-anchor="middle" fill="#52565f">Shopping success</text></g></g><g transform="translate(1320, 1700)"><path d="M24.5 34 L110 34 L195.5 34 C197.5 34 199 35.5 199 37.5 L199 68 L199 98.5 C199 100.5 197.5 102 195.5 102 L110 102 L24.5 102 C22.5 102 21 100.5 21 98.5 L21 68 L21 37.5 C21 35.5 22.5 34 24.5 34 Z" fill="#ffffff" stroke="#4d9ef6" stroke-width="2"/><g transform="translate(36, 49)"><text font-size="14" font-family="Roboto,sans-serif" x="74" y="24" text-anchor="middle" fill="#52565f">Choose delivery address</text></g></g><g transform="translate(275, 1054)"><path d="M65.5 44.5 L108 23 A4.340425531914893 4.340425531914893 0 0 1 112 23 L154.5 44.5 L197 66 A2.2921348314606744 2.2921348314606744 0 0 1 197 70 L154.5 91.5 L112 113 A4.340425531914893 4.340425531914893 0 0 1 108 113 L65.5 91.5 L23 70 A2.2921348314606744 2.2921348314606744 0 0 1 23 66 Z" fill="#ffffff" stroke="#4d9ef6" stroke-width="2"/><g transform="translate(65.5, 44.5)"><text font-size="14" font-family="Roboto,sans-serif" x="44.5" y="18.5" text-anchor="middle" fill="#52565f">Correct login</text><text font-size="14" font-family="Roboto,sans-serif" x="44.5" y="38.5" text-anchor="middle" fill="#52565f">and password</text></g></g><g transform="translate(275, 1190)"><path d="M24.5 34 L110 34 L195.5 34 C197.5 34 199 35.5 199 37.5 L199 68 L199 98.5 C199 100.5 197.5 102 195.5 102 L110 102 L24.5 102 C22.5 102 21 100.5 21 98.5 L21 68 L21 37.5 C21 35.5 22.5 34 24.5 34 Z" fill="#ffffff" stroke="#4d9ef6" stroke-width="2"/><g transform="translate(36, 49)"><text font-size="14" font-family="Roboto,sans-serif" x="74" y="24" text-anchor="middle" fill="#52565f">User succesfully logs in</text></g></g><g transform="translate(0, 1054)"><path d="M24.5 34 L110 34 L195.5 34 C197.5 34 199 35.5 199 37.5 L199 68 L199 98.5 C199 100.5 197.5 102 195.5 102 L110 102 L24.5 102 C22.5 102 21 100.5 21 98.5 L21 68 L21 37.5 C21 35.5 22.5 34 24.5 34 Z" fill="#ffffff" stroke="#4d9ef6" stroke-width="2"/><g transform="translate(36, 49)"><text font-size="14" font-family="Roboto,sans-serif" x="74" y="24" text-anchor="middle" fill="#52565f">Invalid login / password</text></g></g><g transform="translate(275, 1496)"><path d="M24.5 34 L110 34 L195.5 34 C197.5 34 199 35.5 199 37.5 L199 68 L199 98.5 C199 100.5 197.5 102 195.5 102 L110 102 L24.5 102 C22.5 102 21 100.5 21 98.5 L21 68 L21 37.5 C21 35.5 22.5 34 24.5 34 Z" fill="#ffffff" stroke="#4d9ef6" stroke-width="2"/><g transform="translate(36, 49)"><text font-size="14" font-family="Roboto,sans-serif" x="74" y="14" text-anchor="middle" fill="#52565f">User enters a new profile /</text><text font-size="14" font-family="Roboto,sans-serif" x="74" y="34" text-anchor="middle" fill="#52565f">address </text></g></g><g transform="translate(275, 1666)"><path d="M24.5 34 L110 34 L195.5 34 C197.5 34 199 35.5 199 37.5 L199 68 L199 98.5 C199 100.5 197.5 102 195.5 102 L110 102 L24.5 102 C22.5 102 21 100.5 21 98.5 L21 68 L21 37.5 C21 35.5 22.5 34 24.5 34 Z" fill="#ffffff" stroke="#4d9ef6" stroke-width="2"/><g transform="translate(36, 49)"><text font-size="14" font-family="Roboto,sans-serif" x="74" y="24" text-anchor="middle" fill="#52565f">Complete modify</text></g></g><g transform="translate(2860, 850)"><path d="M24.5 34 L110 34 L195.5 34 C197.5 34 199 35.5 199 37.5 L199 68 L199 98.5 C199 100.5 197.5 102 195.5 102 L110 102 L24.5 102 C22.5 102 21 100.5 21 98.5 L21 68 L21 37.5 C21 35.5 22.5 34 24.5 34 Z" fill="#ffffff" stroke="#4d9ef6" stroke-width="2"/><g transform="translate(36, 49)"><text font-size="14" font-family="Roboto,sans-serif" x="74" y="14" text-anchor="middle" fill="#52565f">Buyer request Return</text><text font-size="14" font-family="Roboto,sans-serif" x="74" y="34" text-anchor="middle" fill="#52565f">Merchandise</text></g></g><g transform="translate(2860, 1462)"><path d="M24.5 34 L110 34 L195.5 34 C197.5 34 199 35.5 199 37.5 L199 68 L199 98.5 C199 100.5 197.5 102 195.5 102 L110 102 L24.5 102 C22.5 102 21 100.5 21 98.5 L21 68 L21 37.5 C21 35.5 22.5 34 24.5 34 Z" fill="#ffffff" stroke="#4d9ef6" stroke-width="2"/><g transform="translate(36, 49)"><text font-size="14" font-family="Roboto,sans-serif" x="74" y="14" text-anchor="middle" fill="#52565f">Seller receives products</text><text font-size="14" font-family="Roboto,sans-serif" x="74" y="34" text-anchor="middle" fill="#52565f">&amp; logs receipt</text></g></g><g transform="translate(2860, 1598)"><path d="M24.5 34 L110 34 L195.5 34 C197.5 34 199 35.5 199 37.5 L199 68 L199 98.5 C199 100.5 197.5 102 195.5 102 L110 102 L24.5 102 C22.5 102 21 100.5 21 98.5 L21 68 L21 37.5 C21 35.5 22.5 34 24.5 34 Z" fill="#ffffff" stroke="#4d9ef6" stroke-width="2"/><g transform="translate(36, 49)"><text font-size="14" font-family="Roboto,sans-serif" x="74" y="24" text-anchor="middle" fill="#52565f">Scan or enter Inventory</text></g></g><g transform="translate(2860, 1734)"><path d="M24.5 34 L110 34 L195.5 34 C197.5 34 199 35.5 199 37.5 L199 68 L199 98.5 C199 100.5 197.5 102 195.5 102 L110 102 L24.5 102 C22.5 102 21 100.5 21 98.5 L21 68 L21 37.5 C21 35.5 22.5 34 24.5 34 Z" fill="#ffffff" stroke="#4d9ef6" stroke-width="2"/><g transform="translate(36, 49)"><text font-size="14" font-family="Roboto,sans-serif" x="74" y="24" text-anchor="middle" fill="#52565f">Update inventory</text></g></g><g transform="translate(2860, 1870)"><path d="M24.5 34 L110 34 L195.5 34 C197.5 34 199 35.5 199 37.5 L199 68 L199 98.5 C199 100.5 197.5 102 195.5 102 L110 102 L24.5 102 C22.5 102 21 100.5 21 98.5 L21 68 L21 37.5 C21 35.5 22.5 34 24.5 34 Z" fill="#ffffff" stroke="#4d9ef6" stroke-width="2"/><g transform="translate(36, 49)"><text font-size="14" font-family="Roboto,sans-serif" x="74" y="24" text-anchor="middle" fill="#52565f">Update order status</text></g></g><g transform="translate(2860, 2006)"><path d="M24.5 34 L110 34 L195.5 34 C197.5 34 199 35.5 199 37.5 L199 68 L199 98.5 C199 100.5 197.5 102 195.5 102 L110 102 L24.5 102 C22.5 102 21 100.5 21 98.5 L21 68 L21 37.5 C21 35.5 22.5 34 24.5 34 Z" fill="#ffffff" stroke="#4d9ef6" stroke-width="2"/><g transform="translate(36, 49)"><text font-size="14" font-family="Roboto,sans-serif" x="74" y="24" text-anchor="middle" fill="#52565f">Issue refund</text></g></g><g transform="translate(2860, 2142)"><path d="M24.5 34 L110 34 L195.5 34 C197.5 34 199 35.5 199 37.5 L199 68 L199 98.5 C199 100.5 197.5 102 195.5 102 L110 102 L24.5 102 C22.5 102 21 100.5 21 98.5 L21 68 L21 37.5 C21 35.5 22.5 34 24.5 34 Z" fill="#ffffff" stroke="#4d9ef6" stroke-width="2"/><g transform="translate(36, 49)"><text font-size="14" font-family="Roboto,sans-serif" x="74" y="14" text-anchor="middle" fill="#52565f">Send customer</text><text font-size="14" font-family="Roboto,sans-serif" x="74" y="34" text-anchor="middle" fill="#52565f">notification</text></g></g><g transform="translate(3190, 680)"><path d="M55 34 L110 34 L165 34 C184 34 199 49 199 68 L199 68 L199 68 C199 87 184 102 165 102 L110 102 L55 102 C36 102 21 87 21 68 L21 68 L21 68 C21 49 36 34 55 34 Z" fill="#ffffff" stroke="#4d9ef6" stroke-width="2"/><g transform="translate(40, 49)"><text font-size="14" font-family="Roboto,sans-serif" x="70" y="14" text-anchor="middle" fill="#52565f">Unsubscribe</text><text font-size="14" font-family="Roboto,sans-serif" x="70" y="34" text-anchor="middle" fill="#52565f">newsletter</text></g></g><g transform="translate(3190, 850)"><path d="M24.5 34 L110 34 L195.5 34 C197.5 34 199 35.5 199 37.5 L199 68 L199 98.5 C199 100.5 197.5 102 195.5 102 L110 102 L24.5 102 C22.5 102 21 100.5 21 98.5 L21 68 L21 37.5 C21 35.5 22.5 34 24.5 34 Z" fill="#ffffff" stroke="#4d9ef6" stroke-width="2"/><g transform="translate(36, 49)"><text font-size="14" font-family="Roboto,sans-serif" x="74" y="14" text-anchor="middle" fill="#52565f">Find the newsletter in</text><text font-size="14" font-family="Roboto,sans-serif" x="74" y="34" text-anchor="middle" fill="#52565f">their email</text></g></g><g transform="translate(3190, 1020)"><path d="M24.5 34 L110 34 L195.5 34 C197.5 34 199 35.5 199 37.5 L199 68 L199 98.5 C199 100.5 197.5 102 195.5 102 L110 102 L24.5 102 C22.5 102 21 100.5 21 98.5 L21 68 L21 37.5 C21 35.5 22.5 34 24.5 34 Z" fill="#ffffff" stroke="#4d9ef6" stroke-width="2"/><g transform="translate(36, 49)"><text font-size="14" font-family="Roboto,sans-serif" x="74" y="24" text-anchor="middle" fill="#52565f">Click unsubcribe link </text></g></g><g transform="translate(3190, 1156)"><path d="M24.5 34 L110 34 L195.5 34 C197.5 34 199 35.5 199 37.5 L199 68 L199 98.5 C199 100.5 197.5 102 195.5 102 L110 102 L24.5 102 C22.5 102 21 100.5 21 98.5 L21 68 L21 37.5 C21 35.5 22.5 34 24.5 34 Z" fill="#ffffff" stroke="#4d9ef6" stroke-width="2"/><g transform="translate(36, 49)"><text font-size="14" font-family="Roboto,sans-serif" x="74" y="14" text-anchor="middle" fill="#52565f">Redirect to the webstore</text><text font-size="14" font-family="Roboto,sans-serif" x="74" y="34" text-anchor="middle" fill="#52565f">website</text></g></g><g transform="translate(3190, 1292)"><path d="M24.5 34 L110 34 L195.5 34 C197.5 34 199 35.5 199 37.5 L199 85 L199 132.5 C199 134.5 197.5 136 195.5 136 L110 136 L24.5 136 C22.5 136 21 134.5 21 132.5 L21 85 L21 37.5 C21 35.5 22.5 34 24.5 34 Z" fill="#ffffff" stroke="#4d9ef6" stroke-width="2"/><g transform="translate(36, 49)"><text font-size="14" font-family="Roboto,sans-serif" x="74" y="21" text-anchor="middle" fill="#52565f">It shows the page to</text><text font-size="14" font-family="Roboto,sans-serif" x="74" y="41" text-anchor="middle" fill="#52565f">manage email</text><text font-size="14" font-family="Roboto,sans-serif" x="74" y="61" text-anchor="middle" fill="#52565f">subscriptions</text></g></g><g transform="translate(3190, 1496)"><path d="M24.5 34 L110 34 L195.5 34 C197.5 34 199 35.5 199 37.5 L199 68 L199 98.5 C199 100.5 197.5 102 195.5 102 L110 102 L24.5 102 C22.5 102 21 100.5 21 98.5 L21 68 L21 37.5 C21 35.5 22.5 34 24.5 34 Z" fill="#ffffff" stroke="#4d9ef6" stroke-width="2"/><g transform="translate(36, 49)"><text font-size="14" font-family="Roboto,sans-serif" x="74" y="24" text-anchor="middle" fill="#52565f">Update</text></g></g></g><g><g><path fill="none" stroke="#4d9ef6" stroke-width="2" stroke-dasharray="0px 0px" d="M 2970,1123L 2970,1156L 2970,1156L 2970,1187"/><path transform="translate( 2973, 1125 ) rotate( 180 )" d="M3 6C4.65685 6 6 4.65685 6 3C6 1.34315 4.65685 0 3 0C1.34315 0 0 1.34315 0 3C0 4.65685 1.34315 6 3 6Z" fill="#4d9ef6"/><path transform="translate( 2977, 1189 ) rotate( 540 )" d="M6.34003 0.275664C6.70452 -0.0918881 7.29548 -0.0918881 7.65997 0.275664L13.7266 6.39331C14.0911 6.76086 14.0911 7.35678 13.7266 7.72434C13.3621 8.09189 12.7712 8.09189 12.4067 7.72434L7 2.2722L1.5933 7.72434C1.22881 8.09189 0.637856 8.09189 0.273367 7.72434C-0.0911224 7.35678 -0.0911224 6.76086 0.273367 6.39331L6.34003 0.275664Z" fill="#4d9ef6"/></g><g><path fill="none" stroke="#4d9ef6" stroke-width="2" stroke-dasharray="0px 0px" d="M 2970,1259L 2970,1292L 2970,1326L 2970,1357"/><path transform="translate( 2973, 1261 ) rotate( 180 )" d="M3 6C4.65685 6 6 4.65685 6 3C6 1.34315 4.65685 0 3 0C1.34315 0 0 1.34315 0 3C0 4.65685 1.34315 6 3 6Z" fill="#4d9ef6"/><path transform="translate( 2977, 1359 ) rotate( 540 )" d="M6.34003 0.275664C6.70452 -0.0918881 7.29548 -0.0918881 7.65997 0.275664L13.7266 6.39331C14.0911 6.76086 14.0911 7.35678 13.7266 7.72434C13.3621 8.09189 12.7712 8.09189 12.4067 7.72434L7 2.2722L1.5933 7.72434C1.22881 8.09189 0.637856 8.09189 0.273367 7.72434C-0.0911224 7.35678 -0.0911224 6.76086 0.273367 6.39331L6.34003 0.275664Z" fill="#4d9ef6"/></g><g><path fill="none" stroke="#4d9ef6" stroke-width="2" stroke-dasharray="0px 0px" d="M 2970,1429L 2970,1462L 2970,1462L 2970,1493"/><path transform="translate( 2973, 1431 ) rotate( 180 )" d="M3 6C4.65685 6 6 4.65685 6 3C6 1.34315 4.65685 0 3 0C1.34315 0 0 1.34315 0 3C0 4.65685 1.34315 6 3 6Z" fill="#4d9ef6"/><path transform="translate( 2977, 1495 ) rotate( 540 )" d="M6.34003 0.275664C6.70452 -0.0918881 7.29548 -0.0918881 7.65997 0.275664L13.7266 6.39331C14.0911 6.76086 14.0911 7.35678 13.7266 7.72434C13.3621 8.09189 12.7712 8.09189 12.4067 7.72434L7 2.2722L1.5933 7.72434C1.22881 8.09189 0.637856 8.09189 0.273367 7.72434C-0.0911224 7.35678 -0.0911224 6.76086 0.273367 6.39331L6.34003 0.275664Z" fill="#4d9ef6"/></g><g><path fill="none" stroke="#4d9ef6" stroke-width="2" stroke-dasharray="0px 0px" d="M 2125,952L 2145,952L 2145,952L 2164,952"/><path transform="translate( 2127, 949 ) rotate( 450 )" d="M3 6C4.65685 6 6 4.65685 6 3C6 1.34315 4.65685 0 3 0C1.34315 0 0 1.34315 0 3C0 4.65685 1.34315 6 3 6Z" fill="#4d9ef6"/><path transform="translate( 2166, 945 ) rotate( 450 )" d="M6.34003 0.275664C6.70452 -0.0918881 7.29548 -0.0918881 7.65997 0.275664L13.7266 6.39331C14.0911 6.76086 14.0911 7.35678 13.7266 7.72434C13.3621 8.09189 12.7712 8.09189 12.4067 7.72434L7 2.2722L1.5933 7.72434C1.22881 8.09189 0.637856 8.09189 0.273367 7.72434C-0.0911224 7.35678 -0.0911224 6.76086 0.273367 6.39331L6.34003 0.275664Z" fill="#4d9ef6"/></g><g><path fill="none" stroke="#4d9ef6" stroke-width="2" stroke-dasharray="0px 0px" d="M 2344,952L 2365,952L 2420,952L 2438,952"/><path transform="translate( 2346, 949 ) rotate( 450 )" d="M3 6C4.65685 6 6 4.65685 6 3C6 1.34315 4.65685 0 3 0C1.34315 0 0 1.34315 0 3C0 4.65685 1.34315 6 3 6Z" fill="#4d9ef6"/><path transform="translate( 2440, 945 ) rotate( 450 )" d="M6.34003 0.275664C6.70452 -0.0918881 7.29548 -0.0918881 7.65997 0.275664L13.7266 6.39331C14.0911 6.76086 14.0911 7.35678 13.7266 7.72434C13.3621 8.09189 12.7712 8.09189 12.4067 7.72434L7 2.2722L1.5933 7.72434C1.22881 8.09189 0.637856 8.09189 0.273367 7.72434C-0.0911224 7.35678 -0.0911224 6.76086 0.273367 6.39331L6.34003 0.275664Z" fill="#4d9ef6"/></g><g><path fill="none" stroke="#4d9ef6" stroke-width="2" stroke-dasharray="0px 0px" d="M 2255,998.5L 2255,1020L 2255,1054L 2255,1085"/><path transform="translate( 2258, 1000.5 ) rotate( 180 )" d="M3 6C4.65685 6 6 4.65685 6 3C6 1.34315 4.65685 0 3 0C1.34315 0 0 1.34315 0 3C0 4.65685 1.34315 6 3 6Z" fill="#4d9ef6"/><path transform="translate( 2262, 1087 ) rotate( 540 )" d="M6.34003 0.275664C6.70452 -0.0918881 7.29548 -0.0918881 7.65997 0.275664L13.7266 6.39331C14.0911 6.76086 14.0911 7.35678 13.7266 7.72434C13.3621 8.09189 12.7712 8.09189 12.4067 7.72434L7 2.2722L1.5933 7.72434C1.22881 8.09189 0.637856 8.09189 0.273367 7.72434C-0.0911224 7.35678 -0.0911224 6.76086 0.273367 6.39331L6.34003 0.275664Z" fill="#4d9ef6"/></g><g><path fill="none" stroke="#4d9ef6" stroke-width="2" stroke-dasharray="0px 0px" d="M 2255,1157L 2255,1190L 2255,1224L 2255,1255"/><path transform="translate( 2258, 1159 ) rotate( 180 )" d="M3 6C4.65685 6 6 4.65685 6 3C6 1.34315 4.65685 0 3 0C1.34315 0 0 1.34315 0 3C0 4.65685 1.34315 6 3 6Z" fill="#4d9ef6"/><path transform="translate( 2262, 1257 ) rotate( 540 )" d="M6.34003 0.275664C6.70452 -0.0918881 7.29548 -0.0918881 7.65997 0.275664L13.7266 6.39331C14.0911 6.76086 14.0911 7.35678 13.7266 7.72434C13.3621 8.09189 12.7712 8.09189 12.4067 7.72434L7 2.2722L1.5933 7.72434C1.22881 8.09189 0.637856 8.09189 0.273367 7.72434C-0.0911224 7.35678 -0.0911224 6.76086 0.273367 6.39331L6.34003 0.275664Z" fill="#4d9ef6"/></g><g><path fill="none" stroke="#4d9ef6" stroke-width="2" stroke-dasharray="0px 0px" d="M 2255,1327L 2255,1360L 2255,1360L 2255,1391"/><path transform="translate( 2258, 1329 ) rotate( 180 )" d="M3 6C4.65685 6 6 4.65685 6 3C6 1.34315 4.65685 0 3 0C1.34315 0 0 1.34315 0 3C0 4.65685 1.34315 6 3 6Z" fill="#4d9ef6"/><path transform="translate( 2262, 1393 ) rotate( 540 )" d="M6.34003 0.275664C6.70452 -0.0918881 7.29548 -0.0918881 7.65997 0.275664L13.7266 6.39331C14.0911 6.76086 14.0911 7.35678 13.7266 7.72434C13.3621 8.09189 12.7712 8.09189 12.4067 7.72434L7 2.2722L1.5933 7.72434C1.22881 8.09189 0.637856 8.09189 0.273367 7.72434C-0.0911224 7.35678 -0.0911224 6.76086 0.273367 6.39331L6.34003 0.275664Z" fill="#4d9ef6"/></g><g><path fill="none" stroke="#4d9ef6" stroke-width="2" stroke-dasharray="0px 0px" d="M 2255,1463L 2255,1496L 2255,1496L 2255,1515.5"/><path transform="translate( 2258, 1465 ) rotate( 180 )" d="M3 6C4.65685 6 6 4.65685 6 3C6 1.34315 4.65685 0 3 0C1.34315 0 0 1.34315 0 3C0 4.65685 1.34315 6 3 6Z" fill="#4d9ef6"/><path transform="translate( 2262, 1517.5 ) rotate( 540 )" d="M6.34003 0.275664C6.70452 -0.0918881 7.29548 -0.0918881 7.65997 0.275664L13.7266 6.39331C14.0911 6.76086 14.0911 7.35678 13.7266 7.72434C13.3621 8.09189 12.7712 8.09189 12.4067 7.72434L7 2.2722L1.5933 7.72434C1.22881 8.09189 0.637856 8.09189 0.273367 7.72434C-0.0911224 7.35678 -0.0911224 6.76086 0.273367 6.39331L6.34003 0.275664Z" fill="#4d9ef6"/></g><g><path fill="none" stroke="#4d9ef6" stroke-width="2" stroke-dasharray="0px 0px" d="M 2344,1564L 2365,1564L 2420,1564L 2438,1564"/><path transform="translate( 2346, 1561 ) rotate( 450 )" d="M3 6C4.65685 6 6 4.65685 6 3C6 1.34315 4.65685 0 3 0C1.34315 0 0 1.34315 0 3C0 4.65685 1.34315 6 3 6Z" fill="#4d9ef6"/><path transform="translate( 2440, 1557 ) rotate( 450 )" d="M6.34003 0.275664C6.70452 -0.0918881 7.29548 -0.0918881 7.65997 0.275664L13.7266 6.39331C14.0911 6.76086 14.0911 7.35678 13.7266 7.72434C13.3621 8.09189 12.7712 8.09189 12.4067 7.72434L7 2.2722L1.5933 7.72434C1.22881 8.09189 0.637856 8.09189 0.273367 7.72434C-0.0911224 7.35678 -0.0911224 6.76086 0.273367 6.39331L6.34003 0.275664Z" fill="#4d9ef6"/></g><g><path fill="none" stroke="#4d9ef6" stroke-width="2" stroke-dasharray="0px 0px" d="M 2255,1610.5L 2255,1632L 2255,1632L 2255,1663"/><path transform="translate( 2258, 1612.5 ) rotate( 180 )" d="M3 6C4.65685 6 6 4.65685 6 3C6 1.34315 4.65685 0 3 0C1.34315 0 0 1.34315 0 3C0 4.65685 1.34315 6 3 6Z" fill="#4d9ef6"/><path transform="translate( 2262, 1665 ) rotate( 540 )" d="M6.34003 0.275664C6.70452 -0.0918881 7.29548 -0.0918881 7.65997 0.275664L13.7266 6.39331C14.0911 6.76086 14.0911 7.35678 13.7266 7.72434C13.3621 8.09189 12.7712 8.09189 12.4067 7.72434L7 2.2722L1.5933 7.72434C1.22881 8.09189 0.637856 8.09189 0.273367 7.72434C-0.0911224 7.35678 -0.0911224 6.76086 0.273367 6.39331L6.34003 0.275664Z" fill="#4d9ef6"/><g transform="translate( 2255, 1632 )"><circle r="13" cx="0" cy="0" fill="#4d9ef6"/><g transform="translate( -12, -12 )"><svg width="24" height="24" fill="none" viewBox="0 0 24 24" id="svgSk40b8smv4s6" xmlns="http://www.w3.org/2000/svg">
        <g>
            <path d="M12 21a9 9 0 1 0 0-18 9 9 0 0 0 0 18z" fill="#55D45B"/>
            <path fill-rule="evenodd" clip-rule="evenodd" d="M17.707 9.707L11.5 15.914l-4.207-4.207 1.414-1.414 2.793 2.793 4.793-4.793 1.414 1.414z" fill="#fff"/>
        </g>
    <desc>Created with Snap</desc><defs/></svg></g></g></g><g><path fill="none" stroke="#4d9ef6" stroke-width="2" stroke-dasharray="0px 0px" d="M 385,987L 385,1020L 385,1054L 385,1073.5"/><path transform="translate( 388, 989 ) rotate( 180 )" d="M3 6C4.65685 6 6 4.65685 6 3C6 1.34315 4.65685 0 3 0C1.34315 0 0 1.34315 0 3C0 4.65685 1.34315 6 3 6Z" fill="#4d9ef6"/><path transform="translate( 392, 1075.5 ) rotate( 540 )" d="M6.34003 0.275664C6.70452 -0.0918881 7.29548 -0.0918881 7.65997 0.275664L13.7266 6.39331C14.0911 6.76086 14.0911 7.35678 13.7266 7.72434C13.3621 8.09189 12.7712 8.09189 12.4067 7.72434L7 2.2722L1.5933 7.72434C1.22881 8.09189 0.637856 8.09189 0.273367 7.72434C-0.0911224 7.35678 -0.0911224 6.76086 0.273367 6.39331L6.34003 0.275664Z" fill="#4d9ef6"/></g><g><path fill="none" stroke="#4d9ef6" stroke-width="2" stroke-dasharray="0px 0px" d="M 1430,987L 1430,1020L 1430,1020L 1430,1039.5"/><path transform="translate( 1433, 989 ) rotate( 180 )" d="M3 6C4.65685 6 6 4.65685 6 3C6 1.34315 4.65685 0 3 0C1.34315 0 0 1.34315 0 3C0 4.65685 1.34315 6 3 6Z" fill="#4d9ef6"/><path transform="translate( 1437, 1041.5 ) rotate( 540 )" d="M6.34003 0.275664C6.70452 -0.0918881 7.29548 -0.0918881 7.65997 0.275664L13.7266 6.39331C14.0911 6.76086 14.0911 7.35678 13.7266 7.72434C13.3621 8.09189 12.7712 8.09189 12.4067 7.72434L7 2.2722L1.5933 7.72434C1.22881 8.09189 0.637856 8.09189 0.273367 7.72434C-0.0911224 7.35678 -0.0911224 6.76086 0.273367 6.39331L6.34003 0.275664Z" fill="#4d9ef6"/></g><g><path fill="none" stroke="#4d9ef6" stroke-width="2" stroke-dasharray="0px 0px" d="M 1430,1202.5L 1430,1224L 1430,1258L 1430,1289"/><path transform="translate( 1433, 1204.5 ) rotate( 180 )" d="M3 6C4.65685 6 6 4.65685 6 3C6 1.34315 4.65685 0 3 0C1.34315 0 0 1.34315 0 3C0 4.65685 1.34315 6 3 6Z" fill="#4d9ef6"/><path transform="translate( 1437, 1291 ) rotate( 540 )" d="M6.34003 0.275664C6.70452 -0.0918881 7.29548 -0.0918881 7.65997 0.275664L13.7266 6.39331C14.0911 6.76086 14.0911 7.35678 13.7266 7.72434C13.3621 8.09189 12.7712 8.09189 12.4067 7.72434L7 2.2722L1.5933 7.72434C1.22881 8.09189 0.637856 8.09189 0.273367 7.72434C-0.0911224 7.35678 -0.0911224 6.76086 0.273367 6.39331L6.34003 0.275664Z" fill="#4d9ef6"/></g><g><path fill="none" stroke="#4d9ef6" stroke-width="2" stroke-dasharray="0px 0px" d="M 1286,1122L 1265,1122L 1210,1122L 1192,1122"/><path transform="translate( 1284, 1125 ) rotate( 270 )" d="M3 6C4.65685 6 6 4.65685 6 3C6 1.34315 4.65685 0 3 0C1.34315 0 0 1.34315 0 3C0 4.65685 1.34315 6 3 6Z" fill="#4d9ef6"/><path transform="translate( 1190, 1129 ) rotate( 630 )" d="M6.34003 0.275664C6.70452 -0.0918881 7.29548 -0.0918881 7.65997 0.275664L13.7266 6.39331C14.0911 6.76086 14.0911 7.35678 13.7266 7.72434C13.3621 8.09189 12.7712 8.09189 12.4067 7.72434L7 2.2722L1.5933 7.72434C1.22881 8.09189 0.637856 8.09189 0.273367 7.72434C-0.0911224 7.35678 -0.0911224 6.76086 0.273367 6.39331L6.34003 0.275664Z" fill="#4d9ef6"/></g><g><path fill="none" stroke="#4d9ef6" stroke-width="2" stroke-dasharray="0px 0px" d="M 1100,1087L 1100,1054L 1100,962Q1100,952 1110,952L 1320,952L 1338,952"/><path transform="translate( 1097, 1085 ) rotate( 360 )" d="M3 6C4.65685 6 6 4.65685 6 3C6 1.34315 4.65685 0 3 0C1.34315 0 0 1.34315 0 3C0 4.65685 1.34315 6 3 6Z" fill="#4d9ef6"/><path transform="translate( 1340, 945 ) rotate( 450 )" d="M6.34003 0.275664C6.70452 -0.0918881 7.29548 -0.0918881 7.65997 0.275664L13.7266 6.39331C14.0911 6.76086 14.0911 7.35678 13.7266 7.72434C13.3621 8.09189 12.7712 8.09189 12.4067 7.72434L7 2.2722L1.5933 7.72434C1.22881 8.09189 0.637856 8.09189 0.273367 7.72434C-0.0911224 7.35678 -0.0911224 6.76086 0.273367 6.39331L6.34003 0.275664Z" fill="#4d9ef6"/></g><g><path fill="none" stroke="#4d9ef6" stroke-width="2" stroke-dasharray="0px 0px" d="M 1430,1361L 1430,1394L 1430,1394L 1430,1425"/><path transform="translate( 1433, 1363 ) rotate( 180 )" d="M3 6C4.65685 6 6 4.65685 6 3C6 1.34315 4.65685 0 3 0C1.34315 0 0 1.34315 0 3C0 4.65685 1.34315 6 3 6Z" fill="#4d9ef6"/><path transform="translate( 1437, 1427 ) rotate( 540 )" d="M6.34003 0.275664C6.70452 -0.0918881 7.29548 -0.0918881 7.65997 0.275664L13.7266 6.39331C14.0911 6.76086 14.0911 7.35678 13.7266 7.72434C13.3621 8.09189 12.7712 8.09189 12.4067 7.72434L7 2.2722L1.5933 7.72434C1.22881 8.09189 0.637856 8.09189 0.273367 7.72434C-0.0911224 7.35678 -0.0911224 6.76086 0.273367 6.39331L6.34003 0.275664Z" fill="#4d9ef6"/></g><g><path fill="none" stroke="#4d9ef6" stroke-width="2" stroke-dasharray="0px 0px" d="M 385,1463L 385,1496L 385,1496L 385,1527"/><path transform="translate( 388, 1465 ) rotate( 180 )" d="M3 6C4.65685 6 6 4.65685 6 3C6 1.34315 4.65685 0 3 0C1.34315 0 0 1.34315 0 3C0 4.65685 1.34315 6 3 6Z" fill="#4d9ef6"/><path transform="translate( 392, 1529 ) rotate( 540 )" d="M6.34003 0.275664C6.70452 -0.0918881 7.29548 -0.0918881 7.65997 0.275664L13.7266 6.39331C14.0911 6.76086 14.0911 7.35678 13.7266 7.72434C13.3621 8.09189 12.7712 8.09189 12.4067 7.72434L7 2.2722L1.5933 7.72434C1.22881 8.09189 0.637856 8.09189 0.273367 7.72434C-0.0911224 7.35678 -0.0911224 6.76086 0.273367 6.39331L6.34003 0.275664Z" fill="#4d9ef6"/></g><g><path fill="none" stroke="#4d9ef6" stroke-width="2" stroke-dasharray="0px 0px" d="M 1430,273L 1430,306L 1430,374L 1430,405"/><path transform="translate( 1433, 275 ) rotate( 180 )" d="M3 6C4.65685 6 6 4.65685 6 3C6 1.34315 4.65685 0 3 0C1.34315 0 0 1.34315 0 3C0 4.65685 1.34315 6 3 6Z" fill="#4d9ef6"/><path transform="translate( 1437, 407 ) rotate( 540 )" d="M6.34003 0.275664C6.70452 -0.0918881 7.29548 -0.0918881 7.65997 0.275664L13.7266 6.39331C14.0911 6.76086 14.0911 7.35678 13.7266 7.72434C13.3621 8.09189 12.7712 8.09189 12.4067 7.72434L7 2.2722L1.5933 7.72434C1.22881 8.09189 0.637856 8.09189 0.273367 7.72434C-0.0911224 7.35678 -0.0911224 6.76086 0.273367 6.39331L6.34003 0.275664Z" fill="#4d9ef6"/></g><g><path fill="none" stroke="#4d9ef6" stroke-width="2" stroke-dasharray="0px 0px" d="M 1430,477L 1430,510L 1430,544L 1430,563.5"/><path transform="translate( 1433, 479 ) rotate( 180 )" d="M3 6C4.65685 6 6 4.65685 6 3C6 1.34315 4.65685 0 3 0C1.34315 0 0 1.34315 0 3C0 4.65685 1.34315 6 3 6Z" fill="#4d9ef6"/><path transform="translate( 1437, 565.5 ) rotate( 540 )" d="M6.34003 0.275664C6.70452 -0.0918881 7.29548 -0.0918881 7.65997 0.275664L13.7266 6.39331C14.0911 6.76086 14.0911 7.35678 13.7266 7.72434C13.3621 8.09189 12.7712 8.09189 12.4067 7.72434L7 2.2722L1.5933 7.72434C1.22881 8.09189 0.637856 8.09189 0.273367 7.72434C-0.0911224 7.35678 -0.0911224 6.76086 0.273367 6.39331L6.34003 0.275664Z" fill="#4d9ef6"/></g><g><path fill="none" stroke="#4d9ef6" stroke-width="2" stroke-dasharray="0px 0px" d="M 1430,726.5L 1430,748L 1430,884L 1430,915"/><path transform="translate( 1433, 728.5 ) rotate( 180 )" d="M3 6C4.65685 6 6 4.65685 6 3C6 1.34315 4.65685 0 3 0C1.34315 0 0 1.34315 0 3C0 4.65685 1.34315 6 3 6Z" fill="#4d9ef6"/><path transform="translate( 1437, 917 ) rotate( 540 )" d="M6.34003 0.275664C6.70452 -0.0918881 7.29548 -0.0918881 7.65997 0.275664L13.7266 6.39331C14.0911 6.76086 14.0911 7.35678 13.7266 7.72434C13.3621 8.09189 12.7712 8.09189 12.4067 7.72434L7 2.2722L1.5933 7.72434C1.22881 8.09189 0.637856 8.09189 0.273367 7.72434C-0.0911224 7.35678 -0.0911224 6.76086 0.273367 6.39331L6.34003 0.275664Z" fill="#4d9ef6"/></g><g><path fill="none" stroke="#4d9ef6" stroke-width="2" stroke-dasharray="0px 0px" d="M 1574,646L 1585,646Q1595,646 1595,636L 1595,248Q1595,238 1585,238L 1540,238L 1522,238"/><path transform="translate( 1576, 643 ) rotate( 450 )" d="M3 6C4.65685 6 6 4.65685 6 3C6 1.34315 4.65685 0 3 0C1.34315 0 0 1.34315 0 3C0 4.65685 1.34315 6 3 6Z" fill="#4d9ef6"/><path transform="translate( 1520, 245 ) rotate( 630 )" d="M6.34003 0.275664C6.70452 -0.0918881 7.29548 -0.0918881 7.65997 0.275664L13.7266 6.39331C14.0911 6.76086 14.0911 7.35678 13.7266 7.72434C13.3621 8.09189 12.7712 8.09189 12.4067 7.72434L7 2.2722L1.5933 7.72434C1.22881 8.09189 0.637856 8.09189 0.273367 7.72434C-0.0911224 7.35678 -0.0911224 6.76086 0.273367 6.39331L6.34003 0.275664Z" fill="#4d9ef6"/></g><g><path fill="none" stroke="#4d9ef6" stroke-width="2" stroke-dasharray="0px 0px" d="M 1430,1497L 1430,1530L 1430,1530L 1430,1561"/><path transform="translate( 1433, 1499 ) rotate( 180 )" d="M3 6C4.65685 6 6 4.65685 6 3C6 1.34315 4.65685 0 3 0C1.34315 0 0 1.34315 0 3C0 4.65685 1.34315 6 3 6Z" fill="#4d9ef6"/><path transform="translate( 1437, 1563 ) rotate( 540 )" d="M6.34003 0.275664C6.70452 -0.0918881 7.29548 -0.0918881 7.65997 0.275664L13.7266 6.39331C14.0911 6.76086 14.0911 7.35678 13.7266 7.72434C13.3621 8.09189 12.7712 8.09189 12.4067 7.72434L7 2.2722L1.5933 7.72434C1.22881 8.09189 0.637856 8.09189 0.273367 7.72434C-0.0911224 7.35678 -0.0911224 6.76086 0.273367 6.39331L6.34003 0.275664Z" fill="#4d9ef6"/></g><g><path fill="none" stroke="#4d9ef6" stroke-width="2" stroke-dasharray="0px 0px" d="M 1430,1633L 1430,1666L 1430,1700L 1430,1731"/><path transform="translate( 1433, 1635 ) rotate( 180 )" d="M3 6C4.65685 6 6 4.65685 6 3C6 1.34315 4.65685 0 3 0C1.34315 0 0 1.34315 0 3C0 4.65685 1.34315 6 3 6Z" fill="#4d9ef6"/><path transform="translate( 1437, 1733 ) rotate( 540 )" d="M6.34003 0.275664C6.70452 -0.0918881 7.29548 -0.0918881 7.65997 0.275664L13.7266 6.39331C14.0911 6.76086 14.0911 7.35678 13.7266 7.72434C13.3621 8.09189 12.7712 8.09189 12.4067 7.72434L7 2.2722L1.5933 7.72434C1.22881 8.09189 0.637856 8.09189 0.273367 7.72434C-0.0911224 7.35678 -0.0911224 6.76086 0.273367 6.39331L6.34003 0.275664Z" fill="#4d9ef6"/></g><g><path fill="none" stroke="#4d9ef6" stroke-width="2" stroke-dasharray="0px 0px" d="M 1430,1939L 1430,1972L 1430,1972L 1430,2003"/><path transform="translate( 1433, 1941 ) rotate( 180 )" d="M3 6C4.65685 6 6 4.65685 6 3C6 1.34315 4.65685 0 3 0C1.34315 0 0 1.34315 0 3C0 4.65685 1.34315 6 3 6Z" fill="#4d9ef6"/><path transform="translate( 1437, 2005 ) rotate( 540 )" d="M6.34003 0.275664C6.70452 -0.0918881 7.29548 -0.0918881 7.65997 0.275664L13.7266 6.39331C14.0911 6.76086 14.0911 7.35678 13.7266 7.72434C13.3621 8.09189 12.7712 8.09189 12.4067 7.72434L7 2.2722L1.5933 7.72434C1.22881 8.09189 0.637856 8.09189 0.273367 7.72434C-0.0911224 7.35678 -0.0911224 6.76086 0.273367 6.39331L6.34003 0.275664Z" fill="#4d9ef6"/></g><g><path fill="none" stroke="#4d9ef6" stroke-width="2" stroke-dasharray="0px 0px" d="M 1430,2075L 1430,2108L 1430,2108L 1430,2139"/><path transform="translate( 1433, 2077 ) rotate( 180 )" d="M3 6C4.65685 6 6 4.65685 6 3C6 1.34315 4.65685 0 3 0C1.34315 0 0 1.34315 0 3C0 4.65685 1.34315 6 3 6Z" fill="#4d9ef6"/><path transform="translate( 1437, 2141 ) rotate( 540 )" d="M6.34003 0.275664C6.70452 -0.0918881 7.29548 -0.0918881 7.65997 0.275664L13.7266 6.39331C14.0911 6.76086 14.0911 7.35678 13.7266 7.72434C13.3621 8.09189 12.7712 8.09189 12.4067 7.72434L7 2.2722L1.5933 7.72434C1.22881 8.09189 0.637856 8.09189 0.273367 7.72434C-0.0911224 7.35678 -0.0911224 6.76086 0.273367 6.39331L6.34003 0.275664Z" fill="#4d9ef6"/></g><g><path fill="none" stroke="#4d9ef6" stroke-width="2" stroke-dasharray="0px 0px" d="M 1430,1803L 1430,1836L 1430,1836L 1430,1867"/><path transform="translate( 1433, 1805 ) rotate( 180 )" d="M3 6C4.65685 6 6 4.65685 6 3C6 1.34315 4.65685 0 3 0C1.34315 0 0 1.34315 0 3C0 4.65685 1.34315 6 3 6Z" fill="#4d9ef6"/><path transform="translate( 1437, 1869 ) rotate( 540 )" d="M6.34003 0.275664C6.70452 -0.0918881 7.29548 -0.0918881 7.65997 0.275664L13.7266 6.39331C14.0911 6.76086 14.0911 7.35678 13.7266 7.72434C13.3621 8.09189 12.7712 8.09189 12.4067 7.72434L7 2.2722L1.5933 7.72434C1.22881 8.09189 0.637856 8.09189 0.273367 7.72434C-0.0911224 7.35678 -0.0911224 6.76086 0.273367 6.39331L6.34003 0.275664Z" fill="#4d9ef6"/></g><g><path fill="none" stroke="#4d9ef6" stroke-width="2" stroke-dasharray="0px 0px" d="M 385,1168.5L 385,1190L 385,1190L 385,1221"/><path transform="translate( 388, 1170.5 ) rotate( 180 )" d="M3 6C4.65685 6 6 4.65685 6 3C6 1.34315 4.65685 0 3 0C1.34315 0 0 1.34315 0 3C0 4.65685 1.34315 6 3 6Z" fill="#4d9ef6"/><path transform="translate( 392, 1223 ) rotate( 540 )" d="M6.34003 0.275664C6.70452 -0.0918881 7.29548 -0.0918881 7.65997 0.275664L13.7266 6.39331C14.0911 6.76086 14.0911 7.35678 13.7266 7.72434C13.3621 8.09189 12.7712 8.09189 12.4067 7.72434L7 2.2722L1.5933 7.72434C1.22881 8.09189 0.637856 8.09189 0.273367 7.72434C-0.0911224 7.35678 -0.0911224 6.76086 0.273367 6.39331L6.34003 0.275664Z" fill="#4d9ef6"/></g><g><path fill="none" stroke="#4d9ef6" stroke-width="2" stroke-dasharray="0px 0px" d="M 385,1293L 385,1326L 385,1360L 385,1391"/><path transform="translate( 388, 1295 ) rotate( 180 )" d="M3 6C4.65685 6 6 4.65685 6 3C6 1.34315 4.65685 0 3 0C1.34315 0 0 1.34315 0 3C0 4.65685 1.34315 6 3 6Z" fill="#4d9ef6"/><path transform="translate( 392, 1393 ) rotate( 540 )" d="M6.34003 0.275664C6.70452 -0.0918881 7.29548 -0.0918881 7.65997 0.275664L13.7266 6.39331C14.0911 6.76086 14.0911 7.35678 13.7266 7.72434C13.3621 8.09189 12.7712 8.09189 12.4067 7.72434L7 2.2722L1.5933 7.72434C1.22881 8.09189 0.637856 8.09189 0.273367 7.72434C-0.0911224 7.35678 -0.0911224 6.76086 0.273367 6.39331L6.34003 0.275664Z" fill="#4d9ef6"/></g><g><path fill="none" stroke="#4d9ef6" stroke-width="2" stroke-dasharray="0px 0px" d="M 110,1087L 110,1054L 110,962Q110,952 120,952L 275,952L 293,952"/><path transform="translate( 107, 1085 ) rotate( 360 )" d="M3 6C4.65685 6 6 4.65685 6 3C6 1.34315 4.65685 0 3 0C1.34315 0 0 1.34315 0 3C0 4.65685 1.34315 6 3 6Z" fill="#4d9ef6"/><path transform="translate( 295, 945 ) rotate( 450 )" d="M6.34003 0.275664C6.70452 -0.0918881 7.29548 -0.0918881 7.65997 0.275664L13.7266 6.39331C14.0911 6.76086 14.0911 7.35678 13.7266 7.72434C13.3621 8.09189 12.7712 8.09189 12.4067 7.72434L7 2.2722L1.5933 7.72434C1.22881 8.09189 0.637856 8.09189 0.273367 7.72434C-0.0911224 7.35678 -0.0911224 6.76086 0.273367 6.39331L6.34003 0.275664Z" fill="#4d9ef6"/></g><g><path fill="none" stroke="#4d9ef6" stroke-width="2" stroke-dasharray="0px 0px" d="M 200,1122L 220,1122L 275,1122L 294,1122"/><path transform="translate( 202, 1119 ) rotate( 450 )" d="M3 6C4.65685 6 6 4.65685 6 3C6 1.34315 4.65685 0 3 0C1.34315 0 0 1.34315 0 3C0 4.65685 1.34315 6 3 6Z" fill="#4d9ef6"/><path transform="translate( 296, 1115 ) rotate( 450 )" d="M6.34003 0.275664C6.70452 -0.0918881 7.29548 -0.0918881 7.65997 0.275664L13.7266 6.39331C14.0911 6.76086 14.0911 7.35678 13.7266 7.72434C13.3621 8.09189 12.7712 8.09189 12.4067 7.72434L7 2.2722L1.5933 7.72434C1.22881 8.09189 0.637856 8.09189 0.273367 7.72434C-0.0911224 7.35678 -0.0911224 6.76086 0.273367 6.39331L6.34003 0.275664Z" fill="#4d9ef6"/></g><g><path fill="none" stroke="#4d9ef6" stroke-width="2" stroke-dasharray="0px 0px" d="M 385,1599L 385,1632L 385,1666L 385,1697"/><path transform="translate( 388, 1601 ) rotate( 180 )" d="M3 6C4.65685 6 6 4.65685 6 3C6 1.34315 4.65685 0 3 0C1.34315 0 0 1.34315 0 3C0 4.65685 1.34315 6 3 6Z" fill="#4d9ef6"/><path transform="translate( 392, 1699 ) rotate( 540 )" d="M6.34003 0.275664C6.70452 -0.0918881 7.29548 -0.0918881 7.65997 0.275664L13.7266 6.39331C14.0911 6.76086 14.0911 7.35678 13.7266 7.72434C13.3621 8.09189 12.7712 8.09189 12.4067 7.72434L7 2.2722L1.5933 7.72434C1.22881 8.09189 0.637856 8.09189 0.273367 7.72434C-0.0911224 7.35678 -0.0911224 6.76086 0.273367 6.39331L6.34003 0.275664Z" fill="#4d9ef6"/></g><g><path fill="none" stroke="#4d9ef6" stroke-width="2" stroke-dasharray="0px 0px" d="M 2970,953L 2970,986L 2970,1020L 2970,1051"/><path transform="translate( 2973, 955 ) rotate( 180 )" d="M3 6C4.65685 6 6 4.65685 6 3C6 1.34315 4.65685 0 3 0C1.34315 0 0 1.34315 0 3C0 4.65685 1.34315 6 3 6Z" fill="#4d9ef6"/><path transform="translate( 2977, 1053 ) rotate( 540 )" d="M6.34003 0.275664C6.70452 -0.0918881 7.29548 -0.0918881 7.65997 0.275664L13.7266 6.39331C14.0911 6.76086 14.0911 7.35678 13.7266 7.72434C13.3621 8.09189 12.7712 8.09189 12.4067 7.72434L7 2.2722L1.5933 7.72434C1.22881 8.09189 0.637856 8.09189 0.273367 7.72434C-0.0911224 7.35678 -0.0911224 6.76086 0.273367 6.39331L6.34003 0.275664Z" fill="#4d9ef6"/></g><g><path fill="none" stroke="#4d9ef6" stroke-width="2" stroke-dasharray="0px 0px" d="M 2970,1565L 2970,1598L 2970,1598L 2970,1629"/><path transform="translate( 2973, 1567 ) rotate( 180 )" d="M3 6C4.65685 6 6 4.65685 6 3C6 1.34315 4.65685 0 3 0C1.34315 0 0 1.34315 0 3C0 4.65685 1.34315 6 3 6Z" fill="#4d9ef6"/><path transform="translate( 2977, 1631 ) rotate( 540 )" d="M6.34003 0.275664C6.70452 -0.0918881 7.29548 -0.0918881 7.65997 0.275664L13.7266 6.39331C14.0911 6.76086 14.0911 7.35678 13.7266 7.72434C13.3621 8.09189 12.7712 8.09189 12.4067 7.72434L7 2.2722L1.5933 7.72434C1.22881 8.09189 0.637856 8.09189 0.273367 7.72434C-0.0911224 7.35678 -0.0911224 6.76086 0.273367 6.39331L6.34003 0.275664Z" fill="#4d9ef6"/></g><g><path fill="none" stroke="#4d9ef6" stroke-width="2" stroke-dasharray="0px 0px" d="M 2970,1701L 2970,1734L 2970,1734L 2970,1765"/><path transform="translate( 2973, 1703 ) rotate( 180 )" d="M3 6C4.65685 6 6 4.65685 6 3C6 1.34315 4.65685 0 3 0C1.34315 0 0 1.34315 0 3C0 4.65685 1.34315 6 3 6Z" fill="#4d9ef6"/><path transform="translate( 2977, 1767 ) rotate( 540 )" d="M6.34003 0.275664C6.70452 -0.0918881 7.29548 -0.0918881 7.65997 0.275664L13.7266 6.39331C14.0911 6.76086 14.0911 7.35678 13.7266 7.72434C13.3621 8.09189 12.7712 8.09189 12.4067 7.72434L7 2.2722L1.5933 7.72434C1.22881 8.09189 0.637856 8.09189 0.273367 7.72434C-0.0911224 7.35678 -0.0911224 6.76086 0.273367 6.39331L6.34003 0.275664Z" fill="#4d9ef6"/></g><g><path fill="none" stroke="#4d9ef6" stroke-width="2" stroke-dasharray="0px 0px" d="M 2970,1837L 2970,1870L 2970,1870L 2970,1901"/><path transform="translate( 2973, 1839 ) rotate( 180 )" d="M3 6C4.65685 6 6 4.65685 6 3C6 1.34315 4.65685 0 3 0C1.34315 0 0 1.34315 0 3C0 4.65685 1.34315 6 3 6Z" fill="#4d9ef6"/><path transform="translate( 2977, 1903 ) rotate( 540 )" d="M6.34003 0.275664C6.70452 -0.0918881 7.29548 -0.0918881 7.65997 0.275664L13.7266 6.39331C14.0911 6.76086 14.0911 7.35678 13.7266 7.72434C13.3621 8.09189 12.7712 8.09189 12.4067 7.72434L7 2.2722L1.5933 7.72434C1.22881 8.09189 0.637856 8.09189 0.273367 7.72434C-0.0911224 7.35678 -0.0911224 6.76086 0.273367 6.39331L6.34003 0.275664Z" fill="#4d9ef6"/></g><g><path fill="none" stroke="#4d9ef6" stroke-width="2" stroke-dasharray="0px 0px" d="M 2970,1973L 2970,2006L 2970,2006L 2970,2037"/><path transform="translate( 2973, 1975 ) rotate( 180 )" d="M3 6C4.65685 6 6 4.65685 6 3C6 1.34315 4.65685 0 3 0C1.34315 0 0 1.34315 0 3C0 4.65685 1.34315 6 3 6Z" fill="#4d9ef6"/><path transform="translate( 2977, 2039 ) rotate( 540 )" d="M6.34003 0.275664C6.70452 -0.0918881 7.29548 -0.0918881 7.65997 0.275664L13.7266 6.39331C14.0911 6.76086 14.0911 7.35678 13.7266 7.72434C13.3621 8.09189 12.7712 8.09189 12.4067 7.72434L7 2.2722L1.5933 7.72434C1.22881 8.09189 0.637856 8.09189 0.273367 7.72434C-0.0911224 7.35678 -0.0911224 6.76086 0.273367 6.39331L6.34003 0.275664Z" fill="#4d9ef6"/></g><g><path fill="none" stroke="#4d9ef6" stroke-width="2" stroke-dasharray="0px 0px" d="M 2970,2109L 2970,2142L 2970,2142L 2970,2173"/><path transform="translate( 2973, 2111 ) rotate( 180 )" d="M3 6C4.65685 6 6 4.65685 6 3C6 1.34315 4.65685 0 3 0C1.34315 0 0 1.34315 0 3C0 4.65685 1.34315 6 3 6Z" fill="#4d9ef6"/><path transform="translate( 2977, 2175 ) rotate( 540 )" d="M6.34003 0.275664C6.70452 -0.0918881 7.29548 -0.0918881 7.65997 0.275664L13.7266 6.39331C14.0911 6.76086 14.0911 7.35678 13.7266 7.72434C13.3621 8.09189 12.7712 8.09189 12.4067 7.72434L7 2.2722L1.5933 7.72434C1.22881 8.09189 0.637856 8.09189 0.273367 7.72434C-0.0911224 7.35678 -0.0911224 6.76086 0.273367 6.39331L6.34003 0.275664Z" fill="#4d9ef6"/></g><g><path fill="none" stroke="#4d9ef6" stroke-width="2" stroke-dasharray="0px 0px" d="M 3300,953L 3300,986L 3300,1020L 3300,1051"/><path transform="translate( 3303, 955 ) rotate( 180 )" d="M3 6C4.65685 6 6 4.65685 6 3C6 1.34315 4.65685 0 3 0C1.34315 0 0 1.34315 0 3C0 4.65685 1.34315 6 3 6Z" fill="#4d9ef6"/><path transform="translate( 3307, 1053 ) rotate( 540 )" d="M6.34003 0.275664C6.70452 -0.0918881 7.29548 -0.0918881 7.65997 0.275664L13.7266 6.39331C14.0911 6.76086 14.0911 7.35678 13.7266 7.72434C13.3621 8.09189 12.7712 8.09189 12.4067 7.72434L7 2.2722L1.5933 7.72434C1.22881 8.09189 0.637856 8.09189 0.273367 7.72434C-0.0911224 7.35678 -0.0911224 6.76086 0.273367 6.39331L6.34003 0.275664Z" fill="#4d9ef6"/></g><g><path fill="none" stroke="#4d9ef6" stroke-width="2" stroke-dasharray="0px 0px" d="M 3300,1123L 3300,1156L 3300,1156L 3300,1187"/><path transform="translate( 3303, 1125 ) rotate( 180 )" d="M3 6C4.65685 6 6 4.65685 6 3C6 1.34315 4.65685 0 3 0C1.34315 0 0 1.34315 0 3C0 4.65685 1.34315 6 3 6Z" fill="#4d9ef6"/><path transform="translate( 3307, 1189 ) rotate( 540 )" d="M6.34003 0.275664C6.70452 -0.0918881 7.29548 -0.0918881 7.65997 0.275664L13.7266 6.39331C14.0911 6.76086 14.0911 7.35678 13.7266 7.72434C13.3621 8.09189 12.7712 8.09189 12.4067 7.72434L7 2.2722L1.5933 7.72434C1.22881 8.09189 0.637856 8.09189 0.273367 7.72434C-0.0911224 7.35678 -0.0911224 6.76086 0.273367 6.39331L6.34003 0.275664Z" fill="#4d9ef6"/></g><g><path fill="none" stroke="#4d9ef6" stroke-width="2" stroke-dasharray="0px 0px" d="M 3300,1259L 3300,1292L 3300,1292L 3300,1323"/><path transform="translate( 3303, 1261 ) rotate( 180 )" d="M3 6C4.65685 6 6 4.65685 6 3C6 1.34315 4.65685 0 3 0C1.34315 0 0 1.34315 0 3C0 4.65685 1.34315 6 3 6Z" fill="#4d9ef6"/><path transform="translate( 3307, 1325 ) rotate( 540 )" d="M6.34003 0.275664C6.70452 -0.0918881 7.29548 -0.0918881 7.65997 0.275664L13.7266 6.39331C14.0911 6.76086 14.0911 7.35678 13.7266 7.72434C13.3621 8.09189 12.7712 8.09189 12.4067 7.72434L7 2.2722L1.5933 7.72434C1.22881 8.09189 0.637856 8.09189 0.273367 7.72434C-0.0911224 7.35678 -0.0911224 6.76086 0.273367 6.39331L6.34003 0.275664Z" fill="#4d9ef6"/></g><g><path fill="none" stroke="#4d9ef6" stroke-width="2" stroke-dasharray="0px 0px" d="M 3300,1429L 3300,1462L 3300,1496L 3300,1527"/><path transform="translate( 3303, 1431 ) rotate( 180 )" d="M3 6C4.65685 6 6 4.65685 6 3C6 1.34315 4.65685 0 3 0C1.34315 0 0 1.34315 0 3C0 4.65685 1.34315 6 3 6Z" fill="#4d9ef6"/><path transform="translate( 3307, 1529 ) rotate( 540 )" d="M6.34003 0.275664C6.70452 -0.0918881 7.29548 -0.0918881 7.65997 0.275664L13.7266 6.39331C14.0911 6.76086 14.0911 7.35678 13.7266 7.72434C13.3621 8.09189 12.7712 8.09189 12.4067 7.72434L7 2.2722L1.5933 7.72434C1.22881 8.09189 0.637856 8.09189 0.273367 7.72434C-0.0911224 7.35678 -0.0911224 6.76086 0.273367 6.39331L6.34003 0.275664Z" fill="#4d9ef6"/></g></g><g><g transform="translate( 2392.5, 952 )"><circle r="13" cx="0" cy="0" fill="#4d9ef6"/><g transform="translate( -12, -12 )"><svg width="24" height="24" fill="none" viewBox="0 0 24 24" id="svgSk40b8smv4ro" xmlns="http://www.w3.org/2000/svg">
        <g>
            <path d="M12 21a9 9 0 1 0 0-18 9 9 0 0 0 0 18z" fill="#55D45B"/>
            <path fill-rule="evenodd" clip-rule="evenodd" d="M17.707 9.707L11.5 15.914l-4.207-4.207 1.414-1.414 2.793 2.793 4.793-4.793 1.414 1.414z" fill="#fff"/>
        </g>
    <desc>Created with Snap</desc><defs/></svg></g></g><g transform="translate( 2255, 1037 )"><circle r="13" cx="0" cy="0" fill="#4d9ef6"/><g transform="translate( -12, -12 )"><svg width="24" height="24" fill="none" viewBox="0 0 24 24" id="svgSk40b8smv4ru" xmlns="http://www.w3.org/2000/svg">
        <g>
            <path d="M12 21a9 9 0 1 0 0-18 9 9 0 0 0 0 18z" fill="#55D45B"/>
            <path fill-rule="evenodd" clip-rule="evenodd" d="M17.707 9.707L11.5 15.914l-4.207-4.207 1.414-1.414 2.793 2.793 4.793-4.793 1.414 1.414z" fill="#fff"/>
        </g>
    <desc>Created with Snap</desc><defs/></svg></g></g><g transform="translate( 2392.5, 1564 )"><circle r="13" cx="0" cy="0" fill="#4d9ef6"/><g transform="translate( -12, -12 )"><svg width="24" height="24" fill="none" viewBox="0 0 24 24" id="svgSk40b8smv4s0" xmlns="http://www.w3.org/2000/svg">
        <g>
            <path d="M12 21a9 9 0 1 0 0-18 9 9 0 0 0 0 18z" fill="#FD6764"/>
            <path d="M12 10.546L9.455 8 8 9.455 10.546 12 8 14.546 9.455 16 12 13.454 14.546 16 16 14.546 13.454 12 16 9.455 14.546 8 12 10.546z" fill="#fff"/>
        </g>
    <desc>Created with Snap</desc><defs/></svg></g></g><g transform="translate( 1430, 1241 )"><circle r="13" cx="0" cy="0" fill="#4d9ef6"/><g transform="translate( -12, -12 )"><svg width="24" height="24" fill="none" viewBox="0 0 24 24" id="svgSk40b8smv4sc" xmlns="http://www.w3.org/2000/svg">
        <g>
            <path d="M12 21a9 9 0 1 0 0-18 9 9 0 0 0 0 18z" fill="#55D45B"/>
            <path fill-rule="evenodd" clip-rule="evenodd" d="M17.707 9.707L11.5 15.914l-4.207-4.207 1.414-1.414 2.793 2.793 4.793-4.793 1.414 1.414z" fill="#fff"/>
        </g>
    <desc>Created with Snap</desc><defs/></svg></g></g><g transform="translate( 1237.5, 1122 )"><circle r="13" cx="0" cy="0" fill="#4d9ef6"/><g transform="translate( -12, -12 )"><svg width="24" height="24" fill="none" viewBox="0 0 24 24" id="svgSk40b8smv4si" xmlns="http://www.w3.org/2000/svg">
        <g>
            <path d="M12 21a9 9 0 1 0 0-18 9 9 0 0 0 0 18z" fill="#FD6764"/>
            <path d="M12 10.546L9.455 8 8 9.455 10.546 12 8 14.546 9.455 16 12 13.454 14.546 16 16 14.546 13.454 12 16 9.455 14.546 8 12 10.546z" fill="#fff"/>
        </g>
    <desc>Created with Snap</desc><defs/></svg></g></g><g transform="translate( 1430, 816 )"><circle r="13" cx="0" cy="0" fill="#4d9ef6"/><g transform="translate( -12, -12 )"><svg width="24" height="24" fill="none" viewBox="0 0 24 24" id="svgSk40b8smv4so" xmlns="http://www.w3.org/2000/svg">
        <g>
            <path d="M12 21a9 9 0 1 0 0-18 9 9 0 0 0 0 18z" fill="#FD6764"/>
            <path d="M12 10.546L9.455 8 8 9.455 10.546 12 8 14.546 9.455 16 12 13.454 14.546 16 16 14.546 13.454 12 16 9.455 14.546 8 12 10.546z" fill="#fff"/>
        </g>
    <desc>Created with Snap</desc><defs/></svg></g></g><g transform="translate( 1595, 238 )"><circle r="13" cx="0" cy="0" fill="#4d9ef6"/><g transform="translate( -12, -12 )"><svg width="24" height="24" fill="none" viewBox="0 0 24 24" id="svgSk40b8smv4su" xmlns="http://www.w3.org/2000/svg">
        <g>
            <path d="M12 21a9 9 0 1 0 0-18 9 9 0 0 0 0 18z" fill="#55D45B"/>
            <path fill-rule="evenodd" clip-rule="evenodd" d="M17.707 9.707L11.5 15.914l-4.207-4.207 1.414-1.414 2.793 2.793 4.793-4.793 1.414 1.414z" fill="#fff"/>
        </g>
    <desc>Created with Snap</desc><defs/></svg></g></g><g transform="translate( 385, 1190 )"><circle r="13" cx="0" cy="0" fill="#4d9ef6"/><g transform="translate( -12, -12 )"><svg width="24" height="24" fill="none" viewBox="0 0 24 24" id="svgSk40b8smv4t0" xmlns="http://www.w3.org/2000/svg">
        <g>
            <path d="M12 21a9 9 0 1 0 0-18 9 9 0 0 0 0 18z" fill="#55D45B"/>
            <path fill-rule="evenodd" clip-rule="evenodd" d="M17.707 9.707L11.5 15.914l-4.207-4.207 1.414-1.414 2.793 2.793 4.793-4.793 1.414 1.414z" fill="#fff"/>
        </g>
    <desc>Created with Snap</desc><defs/></svg></g></g><g transform="translate( 247.5, 1122 )"><circle r="13" cx="0" cy="0" fill="#4d9ef6"/><g transform="translate( -12, -12 )"><svg width="24" height="24" fill="none" viewBox="0 0 24 24" id="svgSk40b8smv4t6" xmlns="http://www.w3.org/2000/svg">
        <g>
            <path d="M12 21a9 9 0 1 0 0-18 9 9 0 0 0 0 18z" fill="#FD6764"/>
            <path d="M12 10.546L9.455 8 8 9.455 10.546 12 8 14.546 9.455 16 12 13.454 14.546 16 16 14.546 13.454 12 16 9.455 14.546 8 12 10.546z" fill="#fff"/>
        </g>
    <desc>Created with Snap</desc><defs/></svg></g></g></g></g></g></svg>